<svg xmlns="http://www.w3.org/2000/svg" width="14" height="14" viewBox="0 0 14 14" fill="none">
  <path d="M14 7C14 10.866 10.866 14 7 14C3.13401 14 0 10.866 0 7C0 3.13401 3.13401 0 7 0C10.866 0 14 3.13401 14 7Z" fill="#F82956"/>
  <path d="M10.1182 3.87414C10.1182 3.87414 8.24466 3.65965 7.30787 2.76277C7.19076 2.62598 7.08493 2.62598 6.9956 2.62598C6.90631 2.62598 6.80044 2.62598 6.68338 2.74325C5.7466 3.64012 3.87304 3.87414 3.87304 3.87414C3.52956 3.87414 3.24854 4.15502 3.24854 4.49828V7.93076C3.24854 8.86691 5.1221 11.3633 6.9956 11.3633C8.86916 11.3633 10.7427 8.86692 10.7427 7.93076V4.49828C10.7427 4.15502 10.4616 3.87414 10.1182 3.87414ZM9.87578 8.55709C9.68771 8.89272 9.4187 9.25203 9.11834 9.56886C8.7843 9.92125 8.41956 10.214 8.06359 10.4156C7.68615 10.6294 7.32832 10.7382 7 10.7392V7H3.87304V4.49937L3.87418 4.49828H3.91192L3.95052 4.49342C3.97167 4.4908 4.47559 4.42667 5.10176 4.24416C5.89673 4.01251 6.52896 3.69936 6.98427 3.31215C6.98944 3.31663 6.99478 3.32105 7 3.32553V7H10.1182V7.93076C10.1182 7.9978 10.0675 8.21493 9.87578 8.55709Z" fill="white"/>
  <path d="M13.75 7C13.75 10.7279 10.7279 13.75 7 13.75C3.27208 13.75 0.25 10.7279 0.25 7C0.25 3.27208 3.27208 0.25 7 0.25C10.7279 0.25 13.75 3.27208 13.75 7Z" stroke="#FB94AA" stroke-width="0.5"/>
</svg>