<svg xmlns="http://www.w3.org/2000/svg" width="14" height="14" viewBox="0 0 14 14" fill="none">
  <path d="M14 7C14 10.866 10.866 14 7 14C3.13401 14 0 10.866 0 7C0 3.13401 3.13401 0 7 0C10.866 0 14 3.13401 14 7Z" fill="#F82956"/>
  <path d="M7.38462 10.7885V11.2308H8.15385C8.25585 11.2308 8.35368 11.2713 8.42581 11.3434C8.49794 11.4155 8.53846 11.5134 8.53846 11.6154C8.53846 11.7174 8.49794 11.8152 8.42581 11.8873C8.35368 11.9595 8.25585 12 8.15385 12H5.84615C5.74415 12 5.64632 11.9595 5.57419 11.8873C5.50206 11.8152 5.46154 11.7174 5.46154 11.6154C5.46154 11.5134 5.50206 11.4155 5.57419 11.3434C5.64632 11.2713 5.74415 11.2308 5.84615 11.2308H6.61538V10.7885C4.67192 10.5958 3.15385 8.95577 3.15385 6.96154V6.61538C3.15385 6.51338 3.19437 6.41555 3.2665 6.34342C3.33863 6.27129 3.43646 6.23077 3.53846 6.23077C3.64047 6.23077 3.7383 6.27129 3.81043 6.34342C3.88256 6.41555 3.92308 6.51338 3.92308 6.61538V6.96154C3.92308 7.77759 4.24725 8.56022 4.82429 9.13725C5.40132 9.71429 6.18395 10.0385 7 10.0385C7.81605 10.0385 8.59868 9.71429 9.17571 9.13725C9.75275 8.56022 10.0769 7.77759 10.0769 6.96154V6.61538C10.0769 6.51338 10.1174 6.41555 10.1896 6.34342C10.2617 6.27129 10.3595 6.23077 10.4615 6.23077C10.5635 6.23077 10.6614 6.27129 10.7335 6.34342C10.8056 6.41555 10.8462 6.51338 10.8462 6.61538V6.96154C10.8462 8.95577 9.32808 10.5958 7.38462 10.7885ZM7 2C7.61204 2 8.19901 2.24313 8.63178 2.67591C9.06456 3.10868 9.30769 3.69565 9.30769 4.30769V7C9.30769 7.61204 9.06456 8.19901 8.63178 8.63179C8.19901 9.06456 7.61204 9.30769 7 9.30769C6.38796 9.30769 5.80099 9.06456 5.36822 8.63179C4.93544 8.19901 4.69231 7.61204 4.69231 7V4.30769C4.69231 3.69565 4.93544 3.10868 5.36822 2.67591C5.80099 2.24313 6.38796 2 7 2Z" fill="white"/>
  <path d="M13.75 7C13.75 10.7279 10.7279 13.75 7 13.75C3.27208 13.75 0.25 10.7279 0.25 7C0.25 3.27208 3.27208 0.25 7 0.25C10.7279 0.25 13.75 3.27208 13.75 7Z" stroke="#FB94AA" stroke-width="0.5"/>
</svg>