<svg xmlns="http://www.w3.org/2000/svg" width="20" height="20" viewBox="0 0 20 20" fill="none">
<path d="M20 10C20 15.5228 15.5228 20 10 20C4.47715 20 0 15.5228 0 10C0 4.47715 4.47715 0 10 0C15.5228 0 20 4.47715 20 10Z" fill="url(#paint0_linear_18101_21728)"/>
<path d="M11.2667 9.76667C11.5667 9.48889 11.7111 9.16667 11.7111 8.78889C11.7111 8.41111 11.5444 8.1 11.2222 7.84444C10.9 7.58889 10.4889 7.45556 10 7.45556C9.51111 7.45556 9.11111 7.58889 8.77778 7.84444C8.45555 8.1 8.28889 8.42222 8.28889 8.8C8.28889 9.17778 8.43333 9.5 8.72222 9.77778C8.31111 10.0889 8.11111 10.5 8.11111 11.0111C8.11111 11.4444 8.28889 11.8111 8.63333 12.1C8.97778 12.4 9.43333 12.5444 9.98889 12.5444C10.5444 12.5444 11 12.4 11.3444 12.1C11.6889 11.8 11.8667 11.4444 11.8667 11.0111C11.8778 10.5 11.6778 10.0889 11.2667 9.76667ZM9.53333 8.47778C9.66667 8.36667 9.82222 8.31111 10 8.31111C10.1778 8.31111 10.3444 8.36667 10.4667 8.47778C10.6 8.58889 10.6667 8.73333 10.6667 8.9C10.6667 9.06667 10.6 9.21111 10.4667 9.32222C10.3333 9.43333 10.1778 9.48889 10 9.48889C9.82222 9.48889 9.66667 9.43333 9.53333 9.32222C9.4 9.21111 9.33333 9.06667 9.33333 8.9C9.33333 8.73333 9.4 8.58889 9.53333 8.47778ZM10.5333 11.4667C10.3667 11.5778 10.1889 11.6333 10 11.6333C9.81111 11.6333 9.63333 11.5778 9.46667 11.4667C9.3 11.3556 9.22222 11.2 9.22222 10.9889C9.22222 10.7778 9.3 10.6111 9.46667 10.5C9.62222 10.3889 9.81111 10.3333 10.0111 10.3333C10.2111 10.3333 10.3889 10.3889 10.5556 10.5C10.7111 10.6111 10.8 10.7778 10.8 10.9889C10.8 11.2 10.7 11.3556 10.5333 11.4667Z" fill="white"/>
<path d="M10 3C6.13333 3 3 6.13333 3 10C3 13.8667 6.13333 17 10 17C13.8667 17 17 13.8667 17 10C17 6.13333 13.8667 3 10 3ZM10 14.4222C7.55556 14.4222 5.57778 12.4444 5.57778 10C5.57778 7.55556 7.55556 5.57778 10 5.57778C12.4444 5.57778 14.4222 7.55556 14.4222 10C14.4222 12.4444 12.4444 14.4222 10 14.4222Z" fill="white"/>
<defs>
<linearGradient id="paint0_linear_18101_21728" x1="-5.2031" y1="5.66537" x2="6.12765" y2="25.6654" gradientUnits="userSpaceOnUse">
<stop stop-color="#FF6B8B"/>
<stop offset="1" stop-color="#F82956"/>
</linearGradient>
</defs>
</svg>