<svg xmlns="http://www.w3.org/2000/svg" width="20" height="20" viewBox="0 0 20 20" fill="none">
<path d="M20 10C20 15.5228 15.5228 20 10 20C4.47715 20 0 15.5228 0 10C0 4.47715 4.47715 0 10 0C15.5228 0 20 4.47715 20 10Z" fill="url(#paint0_linear_20888_8589)"/>
<path d="M9.6623 16.3933V14.1725C8.63215 14.1725 7.62979 13.8383 6.80571 13.2202C5.98163 12.602 5.38029 11.7333 5.09196 10.7443C4.5124 10.6646 3.98127 10.3778 3.59672 9.93693C3.21218 9.49605 3.00022 8.93089 3 8.34587V6.55847C3 6.39019 3.06685 6.2288 3.18584 6.1098C3.30483 5.99081 3.46622 5.92396 3.6345 5.92396H4.90351V5.28946C4.90351 5.12118 4.97036 4.95979 5.08936 4.84079C5.20835 4.7218 5.36974 4.65495 5.53802 4.65495H14.4211C14.5894 4.65495 14.7508 4.7218 14.8697 4.84079C14.9887 4.95979 15.0556 5.12118 15.0556 5.28946V5.92396H16.3741C16.5424 5.92396 16.7038 5.99081 16.8228 6.1098C16.9417 6.2288 17.0086 6.39019 17.0086 6.55847V8.34523C17.0086 8.93936 16.7903 9.51279 16.3951 9.95642C15.9999 10.4001 15.4554 10.6829 14.8652 10.7513C14.5909 11.6866 14.0362 12.5152 13.2759 13.1252C12.5157 13.7352 11.5866 14.0972 10.6141 14.1624V16.3933H12.9903C13.0528 16.3933 13.1147 16.4056 13.1724 16.4295C13.2302 16.4534 13.2826 16.4885 13.3268 16.5326C13.371 16.5768 13.4061 16.6293 13.43 16.687C13.4539 16.7448 13.4662 16.8067 13.4662 16.8692C13.4662 16.9317 13.4539 16.9936 13.43 17.0513C13.4061 17.109 13.371 17.1615 13.3268 17.2057C13.2826 17.2499 13.2302 17.2849 13.1724 17.3088C13.1147 17.3328 13.0528 17.3451 12.9903 17.345H7.28608C7.22358 17.3451 7.16169 17.3328 7.10394 17.3088C7.0462 17.2849 6.99373 17.2499 6.94953 17.2057C6.90533 17.1615 6.87027 17.109 6.84635 17.0513C6.82243 16.9936 6.81012 16.9317 6.81012 16.8692C6.81012 16.8067 6.82243 16.7448 6.84635 16.687C6.87027 16.6293 6.90533 16.5768 6.94953 16.5326C6.99373 16.4885 7.0462 16.4534 7.10394 16.4295C7.16169 16.4056 7.22358 16.3933 7.28608 16.3933H9.6623ZM4.90351 6.87572H3.95176V8.34523C3.95176 8.97847 4.35213 9.51843 4.91367 9.72465C4.90695 9.62115 4.90356 9.51746 4.90351 9.41374V6.87572ZM15.0556 6.87572V9.41374C15.0556 9.52414 15.0518 9.63391 15.0442 9.74241C15.3387 9.64598 15.5952 9.45894 15.7771 9.20802C15.9589 8.9571 16.0568 8.65513 16.0568 8.34523V6.87572H15.0556ZM10.0259 11.0888C10.1001 11.0598 10.1826 11.0598 10.2568 11.0888L11.3494 11.5139C11.3989 11.5333 11.4525 11.5398 11.5052 11.5331C11.5579 11.5263 11.6081 11.5064 11.6511 11.4752C11.6941 11.444 11.7286 11.4025 11.7514 11.3545C11.7742 11.3065 11.7845 11.2536 11.7815 11.2005L11.7143 10.0292C11.7097 9.94992 11.7351 9.8718 11.7854 9.8103L12.5284 8.90233C12.562 8.86119 12.5847 8.81228 12.5945 8.76007C12.6043 8.70785 12.6009 8.65401 12.5844 8.60349C12.568 8.55297 12.5392 8.50738 12.5006 8.4709C12.4619 8.43443 12.4148 8.40823 12.3634 8.39472L11.2289 8.09651C11.152 8.07642 11.0854 8.02819 11.0423 7.96136L10.4078 6.97407C10.3791 6.92954 10.3396 6.89293 10.2931 6.86758C10.2465 6.84223 10.1944 6.82895 10.1414 6.82895C10.0883 6.82895 10.0362 6.84223 9.98963 6.86758C9.94308 6.89293 9.90362 6.92954 9.87486 6.97407L9.24035 7.96136C9.1973 8.02819 9.13073 8.07642 9.05381 8.09651L7.91932 8.39472C7.86794 8.40823 7.82077 8.43443 7.78215 8.4709C7.74353 8.50738 7.71468 8.55297 7.69826 8.60349C7.68184 8.65401 7.67837 8.70785 7.68817 8.76007C7.69797 8.81228 7.72072 8.86119 7.75434 8.90233L8.49671 9.8103C8.5472 9.87171 8.57278 9.94983 8.56841 10.0292L8.50116 11.2005C8.49809 11.2535 8.50839 11.3065 8.53111 11.3545C8.55382 11.4025 8.58823 11.444 8.63117 11.4753C8.67411 11.5066 8.72421 11.5265 8.77688 11.5334C8.82955 11.5403 8.8831 11.5338 8.93262 11.5146L10.0259 11.0888Z" fill="white"/>
<defs>
<linearGradient id="paint0_linear_20888_8589" x1="-5.2031" y1="5.66537" x2="6.12765" y2="25.6654" gradientUnits="userSpaceOnUse">
<stop stop-color="#FF6B8B"/>
<stop offset="1" stop-color="#F82956"/>
</linearGradient>
</defs>
</svg>